<svg width="24" height="19" viewBox="0 0 24 19" fill="none" xmlns="http://www.w3.org/2000/svg">
<path d="M20.332 18.462H3.66801C1.63963 18.4528 0 16.8053 0 14.7769V3.68509C0 1.64888 1.65018 0 3.68509 0H20.332C22.3604 0.00916047 24 1.65541 24 3.68509V14.7926C23.9908 16.8158 22.3537 18.4529 20.332 18.462ZM3.66801 1.69079C2.56482 1.69995 1.67497 2.59766 1.67497 3.70084V14.7926C1.67497 15.8971 2.56482 16.7935 3.66801 16.8027H20.332C21.4352 16.7935 22.325 15.8971 22.325 14.7926V3.68509C22.325 2.5806 21.4352 1.68419 20.332 1.67504L3.66801 1.69079Z" fill="#FFDA30"/>
<path d="M12 11.3431C11.0251 11.3457 10.0907 10.9583 9.4037 10.2674L1.25362 2.10925C0.956558 1.77817 0.970954 1.27304 1.28502 0.958969C1.59909 0.644899 2.10422 0.630504 2.43531 0.927562L10.5934 9.08167C10.9664 9.45594 11.4741 9.66793 12.0041 9.66793C12.5328 9.66793 13.0406 9.45593 13.4135 9.08167L21.5649 0.930242C21.8921 0.603087 22.4234 0.603087 22.7505 0.930242C23.0777 1.2574 23.0777 1.7887 22.7505 2.11587L14.6005 10.2673C13.9121 10.9596 12.9749 11.347 12 11.3431Z" fill="#FFDA30"/>
<path d="M22.1642 17.7947C21.9417 17.7947 21.7284 17.7057 21.5714 17.5473L13.8662 9.84214C13.5704 9.51106 13.5835 9.00592 13.8989 8.69185C14.213 8.37778 14.7168 8.36339 15.0492 8.65914L22.7544 16.3643C22.9114 16.5214 22.9991 16.7334 22.9991 16.9558C22.9991 17.1783 22.9114 17.3903 22.7544 17.5473C22.5987 17.7057 22.3866 17.7947 22.1642 17.7947Z" fill="#FFDA30"/>
<path d="M1.83987 17.7947C1.50225 17.792 1.19863 17.5879 1.06908 17.2764C0.939529 16.9637 1.00889 16.6051 1.24575 16.3643L8.95094 8.63935C9.2794 8.31219 9.8094 8.31219 10.1379 8.63935C10.465 8.9665 10.465 9.49781 10.1379 9.82498L2.43268 17.5302C2.27826 17.6951 2.06493 17.7907 1.83987 17.7947Z" fill="#FFDA30"/>
</svg>
